<svg xmlns="http://www.w3.org/2000/svg" viewBox="0 0 401.59 252.36"><g id="レイヤー_2" data-name="レイヤー 2"><path id="face_brown" d="M315.07,63.86c-25.31-46.55-62.52-46.55-62.52-46.55l1.78,4.85C243.43,14.9,230,9.77,213.51,8.54l-55.8-1.68L158,0S100.86,8.3,80.53,43.51s-27.6,73.37-27.6,73.37,0,44.76-21.58,52.71c-14.88,5.48-24.14-7.93-28.46-16.79a1.52,1.52,0,0,0-2.89.67v18.16s9.22,24.07,36.17,20.28c-1.69,7.56-3.09,12.73-7.55,17.21-3.52,3.45,13.54.52,17,.07a3.18,3.18,0,0,1,1,0c3.88.68,30,4.2,49.71-20.77,5.19-5.09,8.72-8.47,11-10.66,4.46,20.58,17.22,33.91,51.35,33.6h114s15.5-53.8,21-87.11l.59,1.24c18.08,4,23.28,18.08,25.34,32.93C350,148.11,323.24,79.71,315.07,63.86Z" style="fill:#8b6146"/><g id="white"><path d="M297.19,148.33c-4.47-5.63-8.79-12.33-16-18-8.74-6.69-35.49-33.6-39.93-40.86-5-8.46-10.89-16.13-5.24-33.27,2.54-7.44,2.77-22.38,2.18-37.22,8.69,4.7,30.74,18.35,49.65,44.56l-3.23-9C274.48,37.23,260.45,17.19,245,9.87a53.18,53.18,0,0,0-7.5-2.78c-18.32-5.45-49.1-7-76.82-7.09H158s-2,.34-4.52.69a39.88,39.88,0,0,0-7.72,1.85c-.26.06-1.26.36-1.39.39l-4.2,1.17a30.18,30.18,0,0,1,3.79,3,6.57,6.57,0,0,0,4.88,1.68C167,7.4,199,8,213.51,26.59c0,0,2.76,5.69,3.43,8.81a212,212,0,0,1,4.31,29.08c-.88,9.86-4.44,17.62-8.26,25-7.18,15.32-11.23,39.5-35.42,51.46-31.44,16.39-26.48,52.79-15,64.28s40.73,22.79,90.13,10.89c6.86,3.63,66.56,23.4,66.75-36.5C321,161.87,310.47,156.44,297.19,148.33Z" style="fill:#fffcfc"/><path d="M162.82,165.55s-98.23-27-83.64,53.25" style="fill:none;stroke:#e5dfdb;stroke-miterlimit:10"/><path d="M157.47,182.82s-43.28,10.48-50.58,39.28" style="fill:none;stroke:#e5dfdb;stroke-miterlimit:10"/><path d="M172.59,202.46S159.4,213,168.16,229" style="fill:none;stroke:#e5dfdb;stroke-miterlimit:10"/><path d="M309.19,191.57s73.92,14.1,39.39,58.35" style="fill:none;stroke:#e5dfdb;stroke-miterlimit:10"/><path d="M305.3,202.46s33.47,11,14.31,43.57" style="fill:none;stroke:#e5dfdb;stroke-miterlimit:10"/><path d="M311.14,169.27s76.83-19.52,70,22.3" style="fill:none;stroke:#e5dfdb;stroke-miterlimit:10"/></g><g id="nose"><path d="M280.44,179.12a5.87,5.87,0,0,1-2.12.24c-4.16-.36-7.1-3.93-7.1-3.93s-2.92-4.46.43-7a4.62,4.62,0,0,0,1.73-3.57c.22-4.95,3-10.09,11.56-7.88a4.28,4.28,0,0,1,2.24,1.46c9,11.32-.73,11.42-3.41,10.73-4-1-2.67,3.14-1.29,5.1a3.35,3.35,0,0,0,3.15,1.42l4.13-.49c3.2-10.1,8.35-36.39-39.65-39.69a12.86,12.86,0,0,0-2.48.07c-6,.71-30.28,4.55-33.59,20-1.31,6.14-.06,10.13,2.12,12.73L227.35,171s7.92,2.36,10.88-2.08a2.63,2.63,0,0,0,.23-2.42c-1.53-3.81-3.37-8.07,3.34-11,7.36-3.17,15.6,14.32,7.23,18s-15,2.54-18.64.76c-3.19-1-9.28-3.36-13.37-5a15.69,15.69,0,0,0,8.26,3.73,3.17,3.17,0,0,1,2.62,2.53c1,5.44,5.08,18.62,20.19,19.08a3.16,3.16,0,0,1,2.72,1.81,5.49,5.49,0,0,0,3.8,3c6-17.21,7-42.89,7-42.89h2.31a1.55,1.55,0,0,1,1.55,1.39c.73,7.38-3.27,28.24-8.66,41.66,2.5-.17,5.44-1.43,8.39-4a3.73,3.73,0,0,1,2.56-.89c7.21.25,17.31-2,20.84-15.84.1-.42.41-1.24.79-2.37C286.35,177.41,282.91,178.43,280.44,179.12Z" style="fill:#323232"/><path d="M289.76,175.25c-.14.45-.28.87-.41,1.25"/><path d="M282.48,174.32c-1.38-2-2.7-6.13,1.29-5.1,2.68.69,12.42.59,3.41-10.73a4.28,4.28,0,0,0-2.24-1.46c-8.55-2.21-11.34,2.93-11.56,7.88a4.62,4.62,0,0,1-1.73,3.57c-3.35,2.49-.43,7-.43,7s2.94,3.57,7.1,3.93a5.87,5.87,0,0,0,2.12-.24c2.47-.69,5.91-1.71,8.91-2.62.13-.38.27-.8.41-1.25l-4.13.49A3.35,3.35,0,0,1,282.48,174.32Z"/><path d="M217,169.27a10.88,10.88,0,0,1-.86-.93" style="fill:#020000"/><path d="M249,173.53c8.37-3.68.13-21.17-7.23-18-6.71,2.89-4.87,7.15-3.34,11a2.63,2.63,0,0,1-.23,2.42c-3,4.44-10.88,2.08-10.88,2.08l-11.19-2.65a10.88,10.88,0,0,0,.86.93c4.09,1.66,10.18,4.06,13.37,5C234.07,176.07,240.66,177.21,249,173.53Z" style="fill:#020000"/><path d="M256.77,199.55a7.27,7.27,0,0,1-2.16-.16"/><path d="M265.43,157.89a1.55,1.55,0,0,0-1.55-1.39h-2.31s-1,25.68-7,42.89a7.27,7.27,0,0,0,2.16.16C262.16,186.13,266.16,165.27,265.43,157.89Z"/></g><g id="right_eye"><path id="白目" d="M172.59,95.77c0,7.41-1.82,16-17.71,17.7-7.06.75-17-6.24-17.7-17.7-.65-10,6.35-17.22,17.7-17.71S172.59,85.85,172.59,95.77Z" style="fill:#fffcfc"/><path id="黒目" d="M168.16,89.73c0,7.32-6.94,10.75-14.61,13.25-9.27,3-18.24.34-15.94-12.58,1.16-6.53,7.87-13.91,15.94-13.91S168.16,82.42,168.16,89.73Z"/><circle id="瞳孔" cx="149.24" cy="84.93" r="3.2" style="fill:#fffcfc"/></g><g id="left_eye"><ellipse cx="276.34" cy="100.33" rx="11.2" ry="16.78" style="fill:#fffcfc"/><path d="M285.86,97c1.26,12.4-2.34,13-8.72,11.4-5.52-1.36-11.89-5.33-11.89-11.89s5.94-14.7,11.89-11.89C279.88,85.9,285.32,91.55,285.86,97Z"/><ellipse cx="271.19" cy="91.13" rx="1.5" ry="2.99" style="fill:#fffcfc"/></g></g></svg>